<svg width="128" height="126" viewBox="0 0 128 126" version="1.1" xmlns="http://www.w3.org/2000/svg" xmlns:xlink="http://www.w3.org/1999/xlink">
<title>Union</title>
<desc>Created using Figma</desc>
<g id="Canvas" transform="translate(-373 246)">
<g id="Union">
<use xlink:href="#path0_stroke" transform="matrix(6.12323e-17 -1 1 6.12323e-17 374 -120)" fill="#F2F2F2"/>
</g>
</g>
<defs>
<path id="path0_stroke" d="M 81.4483 98.1207L 81.0862 98.4655L 81.4483 98.1207ZM 95.6998 12.9153L 95.3377 12.5704L 95.3377 12.5704L 95.6998 12.9153ZM 124.7 13.9647L 124.338 13.6199L 124.338 13.6199L 124.7 13.9647ZM 95.6998 113.085L 95.3377 113.43L 95.3377 113.43L 95.6998 113.085ZM 1.29976 112.035L 0.937687 111.69L 0.937685 111.69L 1.29976 112.035ZM 30.3002 12.9153L 29.9382 13.2601L 29.9382 13.2601L 30.3002 12.9153ZM 64.4483 48.7707L 64.8103 48.4259L 64.4483 48.7707ZM 64.4483 77.2293L 64.0862 76.8845L 64.4483 77.2293ZM 44.5517 27.8793L 44.1897 28.2241L 44.5517 27.8793ZM 81.4483 27.8793L 81.0862 27.5345L 81.4483 27.8793ZM 44.5517 98.1207L 44.9138 98.4655L 44.5517 98.1207ZM 61.5517 48.7707L 61.1897 48.4259L 61.5517 48.7707ZM 48.5 26.5L 48.5 0.84L 47.5 0.84L 47.5 26.5L 48.5 26.5ZM 48.5 0.84C 48.5 0.730354 48.6386 0.5 49 0.5L 49 -0.5C 48.2568 -0.5 47.5 0.0218075 47.5 0.84L 48.5 0.84ZM 49 0.5L 77 0.5L 77 -0.5L 49 -0.5L 49 0.5ZM 77 0.5C 77.3614 0.5 77.5 0.730354 77.5 0.84L 78.5 0.84C 78.5 0.0218068 77.7432 -0.5 77 -0.5L 77 0.5ZM 77.5 0.84L 77.5 26.5L 78.5 26.5L 78.5 0.84L 77.5 0.84ZM 81.8103 28.2241L 96.0618 13.2601L 95.3377 12.5704L 81.0862 27.5345L 81.8103 28.2241ZM 96.0618 13.2601C 96.1469 13.1708 96.2979 13.1 96.4806 13.1L 96.4806 12.1C 96.0557 12.1 95.6322 12.2612 95.3377 12.5704L 96.0618 13.2601ZM 96.4806 13.1L 123.919 13.1L 123.919 12.1L 96.4806 12.1L 96.4806 13.1ZM 123.919 13.1C 124.175 13.1 124.327 13.2206 124.387 13.3244C 124.438 13.4133 124.441 13.5118 124.338 13.6199L 125.062 14.3096C 125.483 13.8677 125.516 13.2838 125.255 12.8278C 125.002 12.3867 124.502 12.1 123.919 12.1L 123.919 13.1ZM 124.338 13.6199L 77.6379 62.6552L 78.3621 63.3448L 125.062 14.3096L 124.338 13.6199ZM 77.6379 63.3448L 124.338 112.38L 125.062 111.69L 78.3621 62.6552L 77.6379 63.3448ZM 124.338 112.38C 124.441 112.488 124.438 112.587 124.387 112.676C 124.327 112.779 124.175 112.9 123.919 112.9L 123.919 113.9C 124.502 113.9 125.002 113.613 125.255 113.172C 125.516 112.716 125.483 112.132 125.062 111.69L 124.338 112.38ZM 123.919 112.9L 96.4806 112.9L 96.4806 113.9L 123.919 113.9L 123.919 112.9ZM 96.4806 112.9C 96.2979 112.9 96.1469 112.829 96.0618 112.74L 95.3377 113.43C 95.6322 113.739 96.0557 113.9 96.4806 113.9L 96.4806 112.9ZM 96.0618 112.74L 81.8103 97.7759L 81.0862 98.4655L 95.3377 113.43L 96.0618 112.74ZM 77.5 99.5L 77.5 125.16L 78.5 125.16L 78.5 99.5L 77.5 99.5ZM 77.5 125.16C 77.5 125.27 77.3614 125.5 77 125.5L 77 126.5C 77.7432 126.5 78.5 125.978 78.5 125.16L 77.5 125.16ZM 77 125.5L 49 125.5L 49 126.5L 77 126.5L 77 125.5ZM 49 125.5C 48.6386 125.5 48.5 125.27 48.5 125.16L 47.5 125.16C 47.5 125.978 48.2568 126.5 49 126.5L 49 125.5ZM 48.5 125.16L 48.5 99.5L 47.5 99.5L 47.5 125.16L 48.5 125.16ZM 44.1897 97.7759L 29.9382 112.74L 30.6623 113.43L 44.9138 98.4655L 44.1897 97.7759ZM 29.9382 112.74C 29.8531 112.829 29.7021 112.9 29.5194 112.9L 29.5194 113.9C 29.9443 113.9 30.3678 113.739 30.6623 113.43L 29.9382 112.74ZM 29.5194 112.9L 2.08062 112.9L 2.08062 113.9L 29.5194 113.9L 29.5194 112.9ZM 2.08062 112.9C 1.82521 112.9 1.67269 112.779 1.6133 112.676C 1.56245 112.587 1.55888 112.488 1.66183 112.38L 0.937685 111.69C 0.516817 112.132 0.484435 112.716 0.745339 113.172C 0.997716 113.613 1.49754 113.9 2.08062 113.9L 2.08062 112.9ZM 1.66182 112.38L 48.3621 63.3448L 47.6379 62.6552L 0.937687 111.69L 1.66182 112.38ZM 48.3621 62.6552L 1.66183 13.6199L 0.937687 14.3096L 47.6379 63.3448L 48.3621 62.6552ZM 1.66182 13.6199C 1.55888 13.5118 1.56245 13.4133 1.6133 13.3244C 1.67269 13.2206 1.82521 13.1 2.08062 13.1L 2.08062 12.1C 1.49754 12.1 0.997715 12.3867 0.745339 12.8278C 0.484436 13.2838 0.516817 13.8677 0.937687 14.3096L 1.66182 13.6199ZM 2.08062 13.1L 29.5194 13.1L 29.5194 12.1L 2.08062 12.1L 2.08062 13.1ZM 29.5194 13.1C 29.7021 13.1 29.8531 13.1708 29.9382 13.2601L 30.6623 12.5704C 30.3678 12.2612 29.9443 12.1 29.5194 12.1L 29.5194 13.1ZM 29.9382 13.2601L 44.1897 28.2241L 44.9138 27.5345L 30.6623 12.5704L 29.9382 13.2601ZM 29.5646 12.1L 29.5194 12.1L 29.5194 13.1L 29.5646 13.1L 29.5646 12.1ZM 2.08062 12.1L 1.88465 12.1L 1.88465 13.1L 2.08062 13.1L 2.08062 12.1ZM 29.5646 112.9L 29.5194 112.9L 29.5194 113.9L 29.5646 113.9L 29.5646 112.9ZM 2.08062 112.9L 1.88465 112.9L 1.88465 113.9L 2.08062 113.9L 2.08062 112.9ZM 48.84 126.5L 49 126.5L 49 125.5L 48.84 125.5L 48.84 126.5ZM 77 126.5L 77.16 126.5L 77.16 125.5L 77 125.5L 77 126.5ZM 124.115 12.1L 123.919 12.1L 123.919 13.1L 124.115 13.1L 124.115 12.1ZM 96.4806 12.1L 96.4354 12.1L 96.4354 13.1L 96.4806 13.1L 96.4806 12.1ZM 124.115 112.9L 123.919 112.9L 123.919 113.9L 124.115 113.9L 124.115 112.9ZM 96.4806 112.9L 96.4354 112.9L 96.4354 113.9L 96.4806 113.9L 96.4806 112.9ZM 77.16 -0.5L 77 -0.5L 77 0.5L 77.16 0.5L 77.16 -0.5ZM 49 -0.5L 48.84 -0.5L 48.84 0.5L 49 0.5L 49 -0.5ZM 78.3621 62.6552L 64.8103 48.4259L 64.0862 49.1155L 77.6379 63.3448L 78.3621 62.6552ZM 61.1897 48.4259L 47.6379 62.6552L 48.3621 63.3448L 61.9138 49.1155L 61.1897 48.4259ZM 77.6379 62.6552L 64.0862 76.8845L 64.8103 77.5741L 78.3621 63.3448L 77.6379 62.6552ZM 61.9138 76.8845L 48.3621 62.6552L 47.6379 63.3448L 61.1897 77.5741L 61.9138 76.8845ZM 47.5 26.5C 47.5 27.8541 45.8476 28.515 44.9138 27.5345L 44.1897 28.2241C 45.7461 29.8584 48.5 28.7568 48.5 26.5L 47.5 26.5ZM 48.84 -0.5C 48.0999 -0.5 47.5 0.099939 47.5 0.84L 48.5 0.84C 48.5 0.652223 48.6522 0.5 48.84 0.5L 48.84 -0.5ZM 78.5 0.84C 78.5 0.0999382 77.9001 -0.5 77.16 -0.5L 77.16 0.5C 77.3478 0.5 77.5 0.652223 77.5 0.84L 78.5 0.84ZM 77.5 26.5C 77.5 28.7568 80.2539 29.8584 81.8103 28.2241L 81.0862 27.5345C 80.1524 28.515 78.5 27.8541 78.5 26.5L 77.5 26.5ZM 81.8103 97.7759C 80.2539 96.1416 77.5 97.2432 77.5 99.5L 78.5 99.5C 78.5 98.1459 80.1524 97.485 81.0862 98.4655L 81.8103 97.7759ZM 77.16 126.5C 77.9001 126.5 78.5 125.9 78.5 125.16L 77.5 125.16C 77.5 125.348 77.3478 125.5 77.16 125.5L 77.16 126.5ZM 47.5 125.16C 47.5 125.9 48.0999 126.5 48.84 126.5L 48.84 125.5C 48.6522 125.5 48.5 125.348 48.5 125.16L 47.5 125.16ZM 48.5 99.5C 48.5 97.2432 45.7461 96.1416 44.1897 97.7759L 44.9138 98.4655C 45.8476 97.485 47.5 98.1459 47.5 99.5L 48.5 99.5ZM 125.062 14.3096C 125.855 13.477 125.265 12.1 124.115 12.1L 124.115 13.1C 124.386 13.1 124.525 13.424 124.338 13.6199L 125.062 14.3096ZM 96.0618 13.2601C 96.1592 13.1579 96.2942 13.1 96.4354 13.1L 96.4354 12.1C 96.0205 12.1 95.6238 12.27 95.3377 12.5704L 96.0618 13.2601ZM 30.6623 12.5704C 30.3762 12.27 29.9795 12.1 29.5646 12.1L 29.5646 13.1C 29.7058 13.1 29.8408 13.1579 29.9382 13.2601L 30.6623 12.5704ZM 1.88465 12.1C 0.734917 12.1 0.144772 13.477 0.937687 14.3096L 1.66182 13.6199C 1.47525 13.424 1.61411 13.1 1.88465 13.1L 1.88465 12.1ZM 124.115 113.9C 125.265 113.9 125.855 112.523 125.062 111.69L 124.338 112.38C 124.525 112.576 124.386 112.9 124.115 112.9L 124.115 113.9ZM 95.3377 113.43C 95.6238 113.73 96.0205 113.9 96.4354 113.9L 96.4354 112.9C 96.2942 112.9 96.1592 112.842 96.0618 112.74L 95.3377 113.43ZM 29.5646 113.9C 29.9795 113.9 30.3762 113.73 30.6623 113.43L 29.9382 112.74C 29.8408 112.842 29.7058 112.9 29.5646 112.9L 29.5646 113.9ZM 0.937686 111.69C 0.144771 112.523 0.734919 113.9 1.88465 113.9L 1.88465 112.9C 1.61411 112.9 1.47525 112.576 1.66182 112.38L 0.937686 111.69ZM 64.8103 48.4259C 63.8251 47.3914 62.1749 47.3914 61.1897 48.4259L 61.9138 49.1155C 62.5049 48.4948 63.4951 48.4948 64.0862 49.1155L 64.8103 48.4259ZM 64.0862 76.8845C 63.4951 77.5052 62.5049 77.5052 61.9138 76.8845L 61.1897 77.5741C 62.1749 78.6086 63.8251 78.6086 64.8103 77.5741L 64.0862 76.8845Z"/>
</defs>
</svg>
