<svg width="142" height="22" viewBox="0 0 142 22" version="1.1" xmlns="http://www.w3.org/2000/svg" xmlns:xlink="http://www.w3.org/1999/xlink">
<title>white-logo</title>
<desc>Created using Figma</desc>
<g id="Canvas" transform="translate(-816 128)">
<g id="white-logo">
<g id="expetek">
<use xlink:href="#path0_fill" transform="translate(844 -127)" fill="#F2F2F2"/>
<mask id="mask0_outline_out">
<rect id="mask0_outline_inv" fill="white" x="-1" y="-1" width="115" height="22" transform="translate(844 -127)"/>
<use xlink:href="#path0_fill" fill="black" transform="translate(844 -127)"/>
</mask>
<g mask="url(#mask0_outline_out)">
<use xlink:href="#path1_stroke_2x" transform="translate(844 -127)" fill="#F2F2F2"/>
</g>
</g>
<g id="Union">
<use xlink:href="#path2_fill" transform="matrix(6.12323e-17 -1 1 6.12323e-17 816 -106)" fill="#F2F2F2"/>
<use xlink:href="#path3_fill" transform="matrix(6.12323e-17 -1 1 6.12323e-17 816 -106)" fill="#F2F2F2"/>
</g>
</g>
</g>
<defs>
<path id="path0_fill" d="M 0 0.2C 0 0.0895431 0.0895431 0 0.2 0L 12.2378 0C 12.3482 0 12.4378 0.0895431 12.4378 0.2L 12.4378 2.90734C 12.4378 3.0178 12.3482 3.10734 12.2378 3.10734L 3.54149 3.10734C 3.43103 3.10734 3.34149 3.19689 3.34149 3.30734L 3.34149 7.99209C 3.34149 8.10255 3.43103 8.19209 3.54149 8.19209L 11.7604 8.19209C 11.8709 8.19209 11.9604 8.28163 11.9604 8.39209L 11.9604 10.9864C 11.9604 11.0969 11.8709 11.1864 11.7604 11.1864L 3.54149 11.1864C 3.43103 11.1864 3.34149 11.276 3.34149 11.3864L 3.34149 16.6362C 3.34149 16.7466 3.43103 16.8362 3.54149 16.8362L 12.7151 16.8362C 12.8256 16.8362 12.9151 16.9257 12.9151 17.0362L 12.9151 19.8C 12.9151 19.9105 12.8256 20 12.7151 20L 0.2 20C 0.0895431 20 0 19.9105 0 19.8L 0 0.2ZM 20.6571 9.42748C 20.6964 9.36284 20.6959 9.28154 20.6558 9.21741L 15.0785 0.306105C 14.9951 0.1729 15.0909 0 15.248 0L 18.8013 0C 18.8734 0 18.9399 0.0387474 18.9754 0.101435L 22.6146 6.52678C 22.6914 6.66248 22.8871 6.66191 22.9632 6.52575L 26.5514 0.102462C 26.5868 0.0391984 26.6535 0 26.726 0L 30.0981 0C 30.2541 0 30.35 0.170743 30.2689 0.304021L 24.7905 9.30047C 24.7508 9.36556 24.7516 9.44751 24.7925 9.51181L 31.2663 19.6927C 31.351 19.8258 31.2554 20 31.0976 20L 27.3599 20C 27.2888 20 27.2231 19.9623 27.1872 19.9009L 22.8335 12.4486C 22.7555 12.3151 22.5619 12.3168 22.4863 12.4517L 18.3122 19.8978C 18.2768 19.9609 18.2101 20 18.1378 20L 14.5797 20C 14.4237 20 14.3278 19.8293 14.4089 19.696L 20.6571 9.42748ZM 33.6418 0.2C 33.6418 0.0895431 33.7313 0 33.8418 0L 39.7678 0L 39.7678 4.47943e-36C 40.8463 7.86529e-19 41.8187 0.103578 42.685 0.310734C 43.5513 0.517891 44.2939 0.856874 44.9127 1.32768C 45.5315 1.79849 46.0088 2.40113 46.3447 3.13559C 46.6807 3.87006 46.8486 4.75518 46.8486 5.79096C 46.8486 6.90207 46.6541 7.83428 46.2652 8.58757C 45.8763 9.34066 45.3461 9.95259 44.6745 10.4233C 44.6742 10.4236 44.6738 10.4239 44.6734 10.4241C 44.0194 10.8759 43.2505 11.2053 42.3668 11.4124C 41.4828 11.6196 40.5457 11.7232 39.5557 11.7232L 37.1833 11.7232C 37.0728 11.7232 36.9833 11.8127 36.9833 11.9232L 36.9833 19.8C 36.9833 19.9105 36.8937 20 36.7833 20L 33.8418 20C 33.7313 20 33.6418 19.9105 33.6418 19.8L 33.6418 0.2ZM 39.317 8.72881C 39.8637 8.72881 40.3841 8.69133 40.878 8.61637C 40.8805 8.616 40.8829 8.61559 40.8853 8.61513C 41.3775 8.52118 41.8172 8.37133 42.2044 8.16558C 42.2066 8.16442 42.2087 8.16322 42.2109 8.16198C 42.5983 7.9362 42.9066 7.6355 43.1358 7.25989C 43.3657 6.88324 43.4806 6.3936 43.4806 5.79096C 43.4806 5.20821 43.3661 4.73805 43.1371 4.38047C 43.1363 4.37917 43.1354 4.37787 43.1346 4.37656C 42.9053 4.00142 42.5969 3.71048 42.2094 3.50375C 42.2082 3.50313 42.2071 3.50251 42.206 3.50187C 41.8361 3.29586 41.405 3.16451 40.9125 3.10783C 40.9096 3.10751 40.9068 3.10712 40.904 3.10668C 40.4279 3.03179 39.9343 2.99435 39.4231 2.99435L 37.1833 2.99435C 37.0728 2.99435 36.9833 3.08389 36.9833 3.19435L 36.9833 8.52881C 36.9833 8.63927 37.0728 8.72881 37.1833 8.72881L 39.317 8.72881ZM 49.8282 0.2C 49.8282 0.0895431 49.9177 0 50.0282 0L 62.0659 0C 62.1764 0 62.2659 0.0895431 62.2659 0.2L 62.2659 2.90734C 62.2659 3.0178 62.1764 3.10734 62.0659 3.10734L 53.3696 3.10734C 53.2592 3.10734 53.1696 3.19689 53.1696 3.30734L 53.1696 7.99209C 53.1696 8.10255 53.2592 8.19209 53.3696 8.19209L 61.5886 8.19209C 61.699 8.19209 61.7886 8.28163 61.7886 8.39209L 61.7886 10.9864C 61.7886 11.0969 61.699 11.1864 61.5886 11.1864L 53.3696 11.1864C 53.2592 11.1864 53.1696 11.276 53.1696 11.3864L 53.1696 16.6362C 53.1696 16.7466 53.2592 16.8362 53.3696 16.8362L 62.5433 16.8362C 62.6537 16.8362 62.7433 16.9257 62.7433 17.0362L 62.7433 19.8C 62.7433 19.9105 62.6537 20 62.5433 20L 50.0282 20C 49.9177 20 49.8282 19.9105 49.8282 19.8L 49.8282 0.2ZM 69.8069 3.30734C 69.8069 3.19689 69.7173 3.10734 69.6069 3.10734L 64.2521 3.10734C 64.1416 3.10734 64.0521 3.0178 64.0521 2.90734L 64.0521 0.2C 64.0521 0.0895431 64.1416 0 64.2521 0L 78.7031 0C 78.8136 0 78.9031 0.0895431 78.9031 0.2L 78.9031 2.90734C 78.9031 3.0178 78.8136 3.10734 78.7031 3.10734L 73.3484 3.10734C 73.2379 3.10734 73.1484 3.19689 73.1484 3.30734L 73.1484 19.8C 73.1484 19.9105 73.0588 20 72.9483 20L 70.0069 20C 69.8964 20 69.8069 19.9105 69.8069 19.8L 69.8069 3.30734ZM 81.0873 0.2C 81.0873 0.0895431 81.1768 0 81.2873 0L 93.3251 0C 93.4355 0 93.5251 0.0895431 93.5251 0.2L 93.5251 2.90734C 93.5251 3.0178 93.4355 3.10734 93.3251 3.10734L 84.6288 3.10734C 84.5183 3.10734 84.4288 3.19689 84.4288 3.30734L 84.4288 7.99209C 84.4288 8.10255 84.5183 8.19209 84.6288 8.19209L 92.8477 8.19209C 92.9582 8.19209 93.0477 8.28163 93.0477 8.39209L 93.0477 10.9864C 93.0477 11.0969 92.9582 11.1864 92.8477 11.1864L 84.6288 11.1864C 84.5183 11.1864 84.4288 11.276 84.4288 11.3864L 84.4288 16.6362C 84.4288 16.7466 84.5183 16.8362 84.6288 16.8362L 93.8024 16.8362C 93.9129 16.8362 94.0024 16.9257 94.0024 17.0362L 94.0024 19.8C 94.0024 19.9105 93.9129 20 93.8024 20L 81.2873 20C 81.1768 20 81.0873 19.9105 81.0873 19.8L 81.0873 0.2ZM 97.2737 0.2C 97.2737 0.0895431 97.3632 0 97.4737 0L 100.415 0C 100.526 0 100.615 0.0895431 100.615 0.2L 100.615 8.58892C 100.615 8.61938 100.64 8.64407 100.67 8.64407C 100.686 8.64407 100.701 8.6375 100.711 8.626L 108.485 0.0655442C 108.523 0.0238017 108.577 0 108.633 0L 112.587 0C 112.763 0 112.853 0.210383 112.732 0.337771L 104.4 9.10547C 104.329 9.18021 104.327 9.2967 104.394 9.3745L 113.348 19.6687C 113.461 19.7982 113.369 20 113.197 20L 109.037 20C 108.977 20 108.92 19.9732 108.882 19.927L 100.711 9.99146C 100.701 9.97898 100.685 9.97175 100.669 9.97175C 100.639 9.97175 100.615 9.99594 100.615 10.0258L 100.615 19.8C 100.615 19.9105 100.526 20 100.415 20L 97.4737 20C 97.3632 20 97.2737 19.9105 97.2737 19.8L 97.2737 0.2Z"/>
<path id="path1_stroke_2x" d="M 20.6558 9.21741L 21.0796 8.95214L 20.6558 9.21741ZM 15.0785 0.306105L 14.6547 0.571369L 15.0785 0.306105ZM 22.6146 6.52678L 22.1795 6.77319L 22.6146 6.52678ZM 26.5514 0.102462L 26.1149 -0.141382L 26.5514 0.102462ZM 24.7905 9.30047L 24.3634 9.04042L 24.7905 9.30047ZM 31.2663 19.6927L 31.6883 19.4244L 31.2663 19.6927ZM 22.8335 12.4486L 22.4018 12.7008L 22.8335 12.4486ZM 18.3122 19.8978L 18.7484 20.1423L 18.3122 19.8978ZM 39.7678 0L 40.2678 0L 40.2678 -0.5L 39.7678 -0.5L 39.7678 0ZM 44.9127 1.32768L 44.6099 1.7256L 44.6099 1.7256L 44.9127 1.32768ZM 44.6745 10.4233L 44.9615 10.8328L 44.6745 10.4233ZM 40.878 8.61637L 40.803 8.12203L 40.878 8.61637ZM 42.2044 8.16558L 41.9698 7.72404L 42.2044 8.16558ZM 43.1371 4.38047L 43.5581 4.11081L 43.1371 4.38047ZM 42.2094 3.50375L 42.4448 3.06261L 42.2094 3.50375ZM 40.9125 3.10783L 40.8553 3.60456L 40.9125 3.10783ZM 108.485 0.0655442L 108.115 -0.270595L 108.485 0.0655442ZM 104.4 9.10547L 104.038 8.76104L 104.4 9.10547ZM 113.348 19.6687L 112.971 19.9969L 113.348 19.6687ZM 100.711 9.99146L 100.325 10.3091L 100.711 9.99146ZM 20.6571 9.42748L 20.23 9.16757L 20.6571 9.42748ZM 18.9754 0.101435L 19.4104 -0.144978L 18.9754 0.101435ZM 22.9632 6.52575L 23.3997 6.7696L 22.9632 6.52575ZM 30.2689 0.304021L 29.8418 0.0439681L 30.2689 0.304021ZM 24.7925 9.51181L 25.2145 9.24352L 24.7925 9.51181ZM 27.1872 19.9009L 27.6189 19.6487L 27.1872 19.9009ZM 22.4863 12.4517L 22.9225 12.6962L 22.4863 12.4517ZM 14.4089 19.696L 14.836 19.9559L 14.4089 19.696ZM 39.7678 4.47943e-36L 39.2678 4.47943e-36L 39.2678 0.5L 39.7678 0.5L 39.7678 4.47943e-36ZM 44.9127 1.32768L 45.2154 0.929766L 45.2154 0.929765L 44.9127 1.32768ZM 44.6734 10.4241L 44.3893 10.0127L 44.6734 10.4241ZM 40.8853 8.61513L 40.7916 8.12399L 40.8853 8.61513ZM 42.2109 8.16198L 42.4626 8.59398L 42.2109 8.16198ZM 43.1346 4.37656L 43.5612 4.11573L 43.1346 4.37656ZM 42.206 3.50187L 41.9626 3.93868L 42.206 3.50187ZM 40.904 3.10668L 40.9817 2.61275L 40.904 3.10668ZM 100.711 8.626L 101.081 8.96214L 100.711 8.626ZM 112.732 0.337771L 112.369 -0.00665722L 112.732 0.337771ZM 104.394 9.3745L 104.017 9.70264L 104.394 9.3745ZM 108.882 19.927L 109.269 19.6094L 108.882 19.927ZM 0.2 0.5L 12.2378 0.5L 12.2378 -0.5L 0.2 -0.5L 0.2 0.5ZM 11.9378 0.2L 11.9378 2.90734L 12.9378 2.90734L 12.9378 0.2L 11.9378 0.2ZM 12.2378 2.60734L 3.54149 2.60734L 3.54149 3.60734L 12.2378 3.60734L 12.2378 2.60734ZM 2.84149 3.30734L 2.84149 7.99209L 3.84149 7.99209L 3.84149 3.30734L 2.84149 3.30734ZM 3.54149 8.69209L 11.7604 8.69209L 11.7604 7.69209L 3.54149 7.69209L 3.54149 8.69209ZM 11.4604 8.39209L 11.4604 10.9864L 12.4604 10.9864L 12.4604 8.39209L 11.4604 8.39209ZM 11.7604 10.6864L 3.54149 10.6864L 3.54149 11.6864L 11.7604 11.6864L 11.7604 10.6864ZM 2.84149 11.3864L 2.84149 16.6362L 3.84149 16.6362L 3.84149 11.3864L 2.84149 11.3864ZM 3.54149 17.3362L 12.7151 17.3362L 12.7151 16.3362L 3.54149 16.3362L 3.54149 17.3362ZM 12.4151 17.0362L 12.4151 19.8L 13.4151 19.8L 13.4151 17.0362L 12.4151 17.0362ZM 12.7151 19.5L 0.2 19.5L 0.2 20.5L 12.7151 20.5L 12.7151 19.5ZM 0.5 19.8L 0.5 0.2L -0.5 0.2L -0.5 19.8L 0.5 19.8ZM 21.0796 8.95214L 15.5023 0.0408419L 14.6547 0.571369L 20.2319 9.48267L 21.0796 8.95214ZM 15.248 0.5L 18.8013 0.5L 18.8013 -0.5L 15.248 -0.5L 15.248 0.5ZM 18.5403 0.347848L 22.1795 6.77319L 23.0496 6.28037L 19.4104 -0.144978L 18.5403 0.347848ZM 23.3997 6.7696L 26.9879 0.346307L 26.1149 -0.141382L 22.5267 6.28191L 23.3997 6.7696ZM 26.726 0.5L 30.0981 0.5L 30.0981 -0.5L 26.726 -0.5L 26.726 0.5ZM 29.8418 0.0439681L 24.3634 9.04042L 25.2175 9.56052L 30.6959 0.564074L 29.8418 0.0439681ZM 24.3706 9.7801L 30.8444 19.961L 31.6883 19.4244L 25.2145 9.24352L 24.3706 9.7801ZM 31.0976 19.5L 27.3599 19.5L 27.3599 20.5L 31.0976 20.5L 31.0976 19.5ZM 27.6189 19.6487L 23.2652 12.1964L 22.4018 12.7008L 26.7555 20.1531L 27.6189 19.6487ZM 22.0502 12.2072L 17.8761 19.6533L 18.7484 20.1423L 22.9225 12.6962L 22.0502 12.2072ZM 18.1378 19.5L 14.5797 19.5L 14.5797 20.5L 18.1378 20.5L 18.1378 19.5ZM 14.836 19.9559L 21.0842 9.68738L 20.23 9.16757L 13.9817 19.4361L 14.836 19.9559ZM 33.8418 0.5L 39.7678 0.5L 39.7678 -0.5L 33.8418 -0.5L 33.8418 0.5ZM 39.7678 0.5C 40.8198 0.499296 41.7339 0.596335 42.5687 0.797025L 42.8013 -0.175556C 41.9035 -0.389179 40.8728 -0.499296 39.7678 -0.5L 39.7678 0.5ZM 42.5687 0.797025C 43.3886 0.990671 44.0371 1.2859 44.6099 1.7256L 45.2154 0.929766C 44.5507 0.427848 43.714 0.0451108 42.8013 -0.175556L 42.5687 0.797025ZM 44.6099 1.7256C 45.1814 2.15548 45.5824 2.66223 45.89 3.34356L 46.7994 2.92763C 46.4352 2.14003 45.8816 1.44151 45.2154 0.929766L 44.6099 1.7256ZM 45.89 3.34356C 46.2042 4.02175 46.3508 4.80199 46.3486 5.79096L 47.3486 5.79096C 47.3464 4.70837 47.1571 3.71836 46.7994 2.92763L 45.89 3.34356ZM 46.3486 5.79096C 46.3513 6.85074 46.183 7.66699 45.8209 8.35818L 46.7095 8.81697C 47.1253 8.00156 47.346 6.9534 47.3486 5.79096L 46.3486 5.79096ZM 45.8209 8.35818C 45.4623 9.06028 45.0112 9.58137 44.3875 10.0139L 44.9615 10.8328C 45.6811 10.3238 46.2903 9.62104 46.7095 8.81697L 45.8209 8.35818ZM 44.3893 10.0127C 43.7777 10.4382 43.0944 10.7303 42.2527 10.9256L 42.4809 11.8992C 43.4066 11.6803 44.2612 11.3136 44.9576 10.8355L 44.3893 10.0127ZM 42.2527 10.9256C 41.3981 11.1268 40.5182 11.2239 39.5557 11.2232L 39.5557 12.2232C 40.5733 12.2224 41.5674 12.1124 42.4809 11.8992L 42.2527 10.9256ZM 39.5557 11.2232L 37.1833 11.2232L 37.1833 12.2232L 39.5557 12.2232L 39.5557 11.2232ZM 36.4833 11.9232L 36.4833 19.8L 37.4833 19.8L 37.4833 11.9232L 36.4833 11.9232ZM 36.7833 19.5L 33.8418 19.5L 33.8418 20.5L 36.7833 20.5L 36.7833 19.5ZM 34.1418 19.8L 34.1418 0.2L 33.1418 0.2L 33.1418 19.8L 34.1418 19.8ZM 39.317 9.22881C 39.8817 9.22849 40.4396 9.18824 40.953 9.11071L 40.803 8.12203C 40.3286 8.19443 39.8458 8.22914 39.317 8.22881L 39.317 9.22881ZM 40.979 9.10626C 41.5053 9.00457 42.0158 8.8302 42.439 8.60711L 41.9698 7.72404C 41.6186 7.91246 41.2497 8.0378 40.7916 8.12399L 40.979 9.10626ZM 42.4626 8.59398C 42.901 8.33417 43.2976 7.94714 43.5627 7.52034L 42.709 6.99944C 42.5156 7.32387 42.2956 7.53823 41.9591 7.72998L 42.4626 8.59398ZM 43.5627 7.52034C 43.8548 7.04157 43.9806 6.45311 43.9806 5.79096L 42.9806 5.79096C 42.9806 6.33409 42.8766 6.72491 42.709 6.99944L 43.5627 7.52034ZM 43.9806 5.79096C 43.9806 5.14702 43.8545 4.57363 43.5581 4.11081L 42.716 4.65013C 42.8776 4.90246 42.9806 5.2694 42.9806 5.79096L 43.9806 5.79096ZM 43.5612 4.11573C 43.2935 3.68638 42.8887 3.30447 42.4448 3.06261L 41.974 3.94488C 42.305 4.1165 42.517 4.31647 42.7081 4.63738L 43.5612 4.11573ZM 42.4493 3.06507C 42.0317 2.83572 41.5068 2.675 40.9696 2.61111L 40.8553 3.60456C 41.3031 3.65403 41.6405 3.75601 41.9626 3.93868L 42.4493 3.06507ZM 40.9817 2.61275C 40.4857 2.53515 39.9532 2.49471 39.4231 2.49435L 39.4231 3.49435C 39.9154 3.49399 40.3701 3.52844 40.8263 3.6006L 40.9817 2.61275ZM 39.4231 2.49435L 37.1833 2.49435L 37.1833 3.49435L 39.4231 3.49435L 39.4231 2.49435ZM 36.4833 3.19435L 36.4833 8.52881L 37.4833 8.52881L 37.4833 3.19435L 36.4833 3.19435ZM 37.1833 9.22881L 39.317 9.22881L 39.317 8.22881L 37.1833 8.22881L 37.1833 9.22881ZM 50.0282 0.5L 62.0659 0.5L 62.0659 -0.5L 50.0282 -0.5L 50.0282 0.5ZM 61.7659 0.2L 61.7659 2.90734L 62.7659 2.90734L 62.7659 0.2L 61.7659 0.2ZM 62.0659 2.60734L 53.3696 2.60734L 53.3696 3.60734L 62.0659 3.60734L 62.0659 2.60734ZM 52.6696 3.30734L 52.6696 7.99209L 53.6696 7.99209L 53.6696 3.30734L 52.6696 3.30734ZM 53.3696 8.69209L 61.5886 8.69209L 61.5886 7.69209L 53.3696 7.69209L 53.3696 8.69209ZM 61.2886 8.39209L 61.2886 10.9864L 62.2886 10.9864L 62.2886 8.39209L 61.2886 8.39209ZM 61.5886 10.6864L 53.3696 10.6864L 53.3696 11.6864L 61.5886 11.6864L 61.5886 10.6864ZM 52.6696 11.3864L 52.6696 16.6362L 53.6696 16.6362L 53.6696 11.3864L 52.6696 11.3864ZM 53.3696 17.3362L 62.5433 17.3362L 62.5433 16.3362L 53.3696 16.3362L 53.3696 17.3362ZM 62.2433 17.0362L 62.2433 19.8L 63.2433 19.8L 63.2433 17.0362L 62.2433 17.0362ZM 62.5433 19.5L 50.0282 19.5L 50.0282 20.5L 62.5433 20.5L 62.5433 19.5ZM 50.3282 19.8L 50.3282 0.2L 49.3282 0.2L 49.3282 19.8L 50.3282 19.8ZM 69.6069 2.60734L 64.2521 2.60734L 64.2521 3.60734L 69.6069 3.60734L 69.6069 2.60734ZM 64.5521 2.90734L 64.5521 0.2L 63.5521 0.2L 63.5521 2.90734L 64.5521 2.90734ZM 64.2521 0.5L 78.7031 0.5L 78.7031 -0.5L 64.2521 -0.5L 64.2521 0.5ZM 78.4031 0.2L 78.4031 2.90734L 79.4031 2.90734L 79.4031 0.2L 78.4031 0.2ZM 78.7031 2.60734L 73.3484 2.60734L 73.3484 3.60734L 78.7031 3.60734L 78.7031 2.60734ZM 72.6484 3.30734L 72.6484 19.8L 73.6484 19.8L 73.6484 3.30734L 72.6484 3.30734ZM 72.9483 19.5L 70.0069 19.5L 70.0069 20.5L 72.9483 20.5L 72.9483 19.5ZM 70.3069 19.8L 70.3069 3.30734L 69.3069 3.30734L 69.3069 19.8L 70.3069 19.8ZM 81.2873 0.5L 93.3251 0.5L 93.3251 -0.5L 81.2873 -0.5L 81.2873 0.5ZM 93.0251 0.2L 93.0251 2.90734L 94.0251 2.90734L 94.0251 0.2L 93.0251 0.2ZM 93.3251 2.60734L 84.6288 2.60734L 84.6288 3.60734L 93.3251 3.60734L 93.3251 2.60734ZM 83.9288 3.30734L 83.9288 7.99209L 84.9288 7.99209L 84.9288 3.30734L 83.9288 3.30734ZM 84.6288 8.69209L 92.8477 8.69209L 92.8477 7.69209L 84.6288 7.69209L 84.6288 8.69209ZM 92.5477 8.39209L 92.5477 10.9864L 93.5477 10.9864L 93.5477 8.39209L 92.5477 8.39209ZM 92.8477 10.6864L 84.6288 10.6864L 84.6288 11.6864L 92.8477 11.6864L 92.8477 10.6864ZM 83.9288 11.3864L 83.9288 16.6362L 84.9288 16.6362L 84.9288 11.3864L 83.9288 11.3864ZM 84.6288 17.3362L 93.8024 17.3362L 93.8024 16.3362L 84.6288 16.3362L 84.6288 17.3362ZM 93.5024 17.0362L 93.5024 19.8L 94.5024 19.8L 94.5024 17.0362L 93.5024 17.0362ZM 93.8024 19.5L 81.2873 19.5L 81.2873 20.5L 93.8024 20.5L 93.8024 19.5ZM 81.5873 19.8L 81.5873 0.2L 80.5873 0.2L 80.5873 19.8L 81.5873 19.8ZM 97.4737 0.5L 100.415 0.5L 100.415 -0.5L 97.4737 -0.5L 97.4737 0.5ZM 100.115 0.2L 100.115 8.58892L 101.115 8.58892L 101.115 0.2L 100.115 0.2ZM 101.081 8.96214L 108.855 0.401684L 108.115 -0.270595L 100.341 8.28986L 101.081 8.96214ZM 108.633 0.5L 112.587 0.5L 112.587 -0.5L 108.633 -0.5L 108.633 0.5ZM 112.369 -0.00665722L 104.038 8.76104L 104.763 9.4499L 113.094 0.6822L 112.369 -0.00665722ZM 104.017 9.70264L 112.971 19.9969L 113.725 19.3406L 104.771 9.04635L 104.017 9.70264ZM 113.197 19.5L 109.037 19.5L 109.037 20.5L 113.197 20.5L 113.197 19.5ZM 109.269 19.6094L 101.097 9.67386L 100.325 10.3091L 108.496 20.2446L 109.269 19.6094ZM 100.115 10.0258L 100.115 19.8L 101.115 19.8L 101.115 10.0258L 100.115 10.0258ZM 100.415 19.5L 97.4737 19.5L 97.4737 20.5L 100.415 20.5L 100.415 19.5ZM 97.7737 19.8L 97.7737 0.2L 96.7737 0.2L 96.7737 19.8L 97.7737 19.8ZM 0.2 -0.5C -0.186599 -0.5 -0.5 -0.186599 -0.5 0.2L 0.5 0.2C 0.5 0.365685 0.365685 0.5 0.2 0.5L 0.2 -0.5ZM 12.2378 0.5C 12.0721 0.5 11.9378 0.365685 11.9378 0.2L 12.9378 0.2C 12.9378 -0.186599 12.6244 -0.5 12.2378 -0.5L 12.2378 0.5ZM 11.9378 2.90734C 11.9378 2.74166 12.0721 2.60734 12.2378 2.60734L 12.2378 3.60734C 12.6244 3.60734 12.9378 3.29394 12.9378 2.90734L 11.9378 2.90734ZM 3.54149 2.60734C 3.15489 2.60734 2.84149 2.92075 2.84149 3.30734L 3.84149 3.30734C 3.84149 3.47303 3.70718 3.60734 3.54149 3.60734L 3.54149 2.60734ZM 2.84149 7.99209C 2.84149 8.37869 3.15489 8.69209 3.54149 8.69209L 3.54149 7.69209C 3.70718 7.69209 3.84149 7.82641 3.84149 7.99209L 2.84149 7.99209ZM 11.7604 8.69209C 11.5947 8.69209 11.4604 8.55778 11.4604 8.39209L 12.4604 8.39209C 12.4604 8.00549 12.147 7.69209 11.7604 7.69209L 11.7604 8.69209ZM 11.4604 10.9864C 11.4604 10.8208 11.5947 10.6864 11.7604 10.6864L 11.7604 11.6864C 12.147 11.6864 12.4604 11.373 12.4604 10.9864L 11.4604 10.9864ZM 3.54149 10.6864C 3.15489 10.6864 2.84149 10.9998 2.84149 11.3864L 3.84149 11.3864C 3.84149 11.5521 3.70718 11.6864 3.54149 11.6864L 3.54149 10.6864ZM 2.84149 16.6362C 2.84149 17.0228 3.15489 17.3362 3.54149 17.3362L 3.54149 16.3362C 3.70718 16.3362 3.84149 16.4705 3.84149 16.6362L 2.84149 16.6362ZM 12.7151 17.3362C 12.5494 17.3362 12.4151 17.2018 12.4151 17.0362L 13.4151 17.0362C 13.4151 16.6496 13.1017 16.3362 12.7151 16.3362L 12.7151 17.3362ZM 12.4151 19.8C 12.4151 19.6343 12.5494 19.5 12.7151 19.5L 12.7151 20.5C 13.1017 20.5 13.4151 20.1866 13.4151 19.8L 12.4151 19.8ZM 0.2 19.5C 0.365685 19.5 0.5 19.6343 0.5 19.8L -0.5 19.8C -0.5 20.1866 -0.186599 20.5 0.2 20.5L 0.2 19.5ZM 20.2319 9.48267C 20.1717 9.38647 20.171 9.26452 20.23 9.16757L 21.0842 9.68738C 21.2219 9.46116 21.2201 9.17662 21.0796 8.95214L 20.2319 9.48267ZM 15.5023 0.0408419C 15.6274 0.24065 15.4837 0.5 15.248 0.5L 15.248 -0.5C 14.698 -0.5 14.3629 0.105151 14.6547 0.571369L 15.5023 0.0408419ZM 18.8013 0.5C 18.6933 0.5 18.5936 0.441879 18.5403 0.347848L 19.4104 -0.144978C 19.2862 -0.364384 19.0535 -0.5 18.8013 -0.5L 18.8013 0.5ZM 22.1795 6.77319C 22.4485 7.24816 23.1335 7.24614 23.3997 6.7696L 22.5267 6.28191C 22.6408 6.07767 22.9343 6.07681 23.0496 6.28037L 22.1795 6.77319ZM 26.9879 0.346307C 26.9349 0.441202 26.8347 0.5 26.726 0.5L 26.726 -0.5C 26.4724 -0.5 26.2386 -0.362806 26.1149 -0.141382L 26.9879 0.346307ZM 30.0981 0.5C 29.864 0.5 29.7201 0.243886 29.8418 0.0439681L 30.6959 0.564074C 30.98 0.0976003 30.6442 -0.5 30.0981 -0.5L 30.0981 0.5ZM 24.3634 9.04042C 24.2247 9.26821 24.2275 9.55504 24.3706 9.7801L 25.2145 9.24352C 25.2758 9.33997 25.277 9.4629 25.2175 9.56052L 24.3634 9.04042ZM 30.8444 19.961C 30.7174 19.7613 30.8609 19.5 31.0976 19.5L 31.0976 20.5C 31.6498 20.5 31.9846 19.8904 31.6883 19.4244L 30.8444 19.961ZM 27.3599 19.5C 27.4665 19.5 27.5652 19.5566 27.6189 19.6487L 26.7555 20.1531C 26.881 20.3679 27.1111 20.5 27.3599 20.5L 27.3599 19.5ZM 23.2652 12.1964C 22.9922 11.7291 22.3148 11.7351 22.0502 12.2072L 22.9225 12.6962C 22.8091 12.8985 22.5188 12.9011 22.4018 12.7008L 23.2652 12.1964ZM 17.8761 19.6533C 17.9291 19.5586 18.0292 19.5 18.1378 19.5L 18.1378 20.5C 18.391 20.5 18.6245 20.3632 18.7484 20.1423L 17.8761 19.6533ZM 14.5797 19.5C 14.8138 19.5 14.9577 19.756 14.836 19.9559L 13.9817 19.4361C 13.6979 19.9026 14.0337 20.5 14.5797 20.5L 14.5797 19.5ZM 33.8418 -0.5C 33.4552 -0.5 33.1418 -0.186599 33.1418 0.2L 34.1418 0.2C 34.1418 0.365685 34.0075 0.5 33.8418 0.5L 33.8418 -0.5ZM 39.2678 0L 39.2678 4.47943e-36L 40.2678 4.47943e-36L 40.2678 0L 39.2678 0ZM 44.6099 1.7256C 44.6099 1.7256 44.6099 1.7256 44.6099 1.7256L 45.2154 0.929765C 45.2154 0.929765 45.2154 0.929766 45.2154 0.929765L 44.6099 1.7256ZM 44.3875 10.0139C 44.3881 10.0135 44.3887 10.0131 44.3893 10.0127L 44.9576 10.8355C 44.9587 10.8348 44.9605 10.8335 44.9615 10.8328L 44.3875 10.0139ZM 37.1833 11.2232C 36.7967 11.2232 36.4833 11.5366 36.4833 11.9232L 37.4833 11.9232C 37.4833 12.0888 37.3489 12.2232 37.1833 12.2232L 37.1833 11.2232ZM 36.4833 19.8C 36.4833 19.6343 36.6176 19.5 36.7833 19.5L 36.7833 20.5C 37.1699 20.5 37.4833 20.1866 37.4833 19.8L 36.4833 19.8ZM 33.8418 19.5C 34.0075 19.5 34.1418 19.6343 34.1418 19.8L 33.1418 19.8C 33.1418 20.1866 33.4552 20.5 33.8418 20.5L 33.8418 19.5ZM 40.953 9.11071C 40.9601 9.10961 40.9719 9.10759 40.979 9.10626L 40.7916 8.12399C 40.7954 8.12326 40.7992 8.12261 40.803 8.12203L 40.953 9.11071ZM 42.439 8.60711C 42.4455 8.60365 42.4562 8.59769 42.4626 8.59398L 41.9591 7.72998C 41.9627 7.7279 41.9662 7.72592 41.9698 7.72404L 42.439 8.60711ZM 43.5581 4.11081C 43.5591 4.11236 43.5602 4.11401 43.5612 4.11573L 42.7081 4.63738C 42.7103 4.64097 42.7138 4.64669 42.716 4.65013L 43.5581 4.11081ZM 42.4448 3.06261C 42.4462 3.0634 42.4477 3.06422 42.4493 3.06507L 41.9626 3.93868C 41.9658 3.94042 41.9709 3.94321 41.974 3.94488L 42.4448 3.06261ZM 40.9696 2.61111C 40.9735 2.61156 40.9775 2.6121 40.9817 2.61275L 40.8263 3.6006C 40.8343 3.60184 40.8474 3.60362 40.8553 3.60456L 40.9696 2.61111ZM 37.1833 2.49435C 36.7967 2.49435 36.4833 2.80775 36.4833 3.19435L 37.4833 3.19435C 37.4833 3.36004 37.3489 3.49435 37.1833 3.49435L 37.1833 2.49435ZM 36.4833 8.52881C 36.4833 8.91541 36.7967 9.22881 37.1833 9.22881L 37.1833 8.22881C 37.3489 8.22881 37.4833 8.36313 37.4833 8.52881L 36.4833 8.52881ZM 50.0282 -0.5C 49.6416 -0.5 49.3282 -0.186599 49.3282 0.2L 50.3282 0.2C 50.3282 0.365685 50.1938 0.5 50.0282 0.5L 50.0282 -0.5ZM 62.0659 0.5C 61.9002 0.5 61.7659 0.365685 61.7659 0.2L 62.7659 0.2C 62.7659 -0.186599 62.4525 -0.5 62.0659 -0.5L 62.0659 0.5ZM 61.7659 2.90734C 61.7659 2.74166 61.9002 2.60734 62.0659 2.60734L 62.0659 3.60734C 62.4525 3.60734 62.7659 3.29394 62.7659 2.90734L 61.7659 2.90734ZM 53.3696 2.60734C 52.983 2.60734 52.6696 2.92075 52.6696 3.30734L 53.6696 3.30734C 53.6696 3.47303 53.5353 3.60734 53.3696 3.60734L 53.3696 2.60734ZM 52.6696 7.99209C 52.6696 8.37869 52.983 8.69209 53.3696 8.69209L 53.3696 7.69209C 53.5353 7.69209 53.6696 7.82641 53.6696 7.99209L 52.6696 7.99209ZM 61.5886 8.69209C 61.4229 8.69209 61.2886 8.55778 61.2886 8.39209L 62.2886 8.39209C 62.2886 8.00549 61.9752 7.69209 61.5886 7.69209L 61.5886 8.69209ZM 61.2886 10.9864C 61.2886 10.8208 61.4229 10.6864 61.5886 10.6864L 61.5886 11.6864C 61.9752 11.6864 62.2886 11.373 62.2886 10.9864L 61.2886 10.9864ZM 53.3696 10.6864C 52.983 10.6864 52.6696 10.9998 52.6696 11.3864L 53.6696 11.3864C 53.6696 11.5521 53.5353 11.6864 53.3696 11.6864L 53.3696 10.6864ZM 52.6696 16.6362C 52.6696 17.0228 52.983 17.3362 53.3696 17.3362L 53.3696 16.3362C 53.5353 16.3362 53.6696 16.4705 53.6696 16.6362L 52.6696 16.6362ZM 62.5433 17.3362C 62.3776 17.3362 62.2433 17.2018 62.2433 17.0362L 63.2433 17.0362C 63.2433 16.6496 62.9299 16.3362 62.5433 16.3362L 62.5433 17.3362ZM 62.2433 19.8C 62.2433 19.6343 62.3776 19.5 62.5433 19.5L 62.5433 20.5C 62.9299 20.5 63.2433 20.1866 63.2433 19.8L 62.2433 19.8ZM 50.0282 19.5C 50.1938 19.5 50.3282 19.6343 50.3282 19.8L 49.3282 19.8C 49.3282 20.1866 49.6416 20.5 50.0282 20.5L 50.0282 19.5ZM 69.6069 3.60734C 69.4412 3.60734 69.3069 3.47303 69.3069 3.30734L 70.3069 3.30734C 70.3069 2.92075 69.9935 2.60734 69.6069 2.60734L 69.6069 3.60734ZM 64.2521 2.60734C 64.4177 2.60734 64.5521 2.74166 64.5521 2.90734L 63.5521 2.90734C 63.5521 3.29394 63.8655 3.60734 64.2521 3.60734L 64.2521 2.60734ZM 64.5521 0.2C 64.5521 0.365685 64.4177 0.5 64.2521 0.5L 64.2521 -0.5C 63.8655 -0.5 63.5521 -0.186599 63.5521 0.2L 64.5521 0.2ZM 78.7031 0.5C 78.5375 0.5 78.4031 0.365685 78.4031 0.2L 79.4031 0.2C 79.4031 -0.186599 79.0897 -0.5 78.7031 -0.5L 78.7031 0.5ZM 78.4031 2.90734C 78.4031 2.74166 78.5375 2.60734 78.7031 2.60734L 78.7031 3.60734C 79.0897 3.60734 79.4031 3.29394 79.4031 2.90734L 78.4031 2.90734ZM 73.3484 2.60734C 72.9618 2.60734 72.6484 2.92075 72.6484 3.30734L 73.6484 3.30734C 73.6484 3.47303 73.514 3.60734 73.3484 3.60734L 73.3484 2.60734ZM 72.6484 19.8C 72.6484 19.6343 72.7827 19.5 72.9483 19.5L 72.9483 20.5C 73.3349 20.5 73.6484 20.1866 73.6484 19.8L 72.6484 19.8ZM 70.0069 19.5C 70.1725 19.5 70.3069 19.6343 70.3069 19.8L 69.3069 19.8C 69.3069 20.1866 69.6203 20.5 70.0069 20.5L 70.0069 19.5ZM 81.2873 -0.5C 80.9007 -0.5 80.5873 -0.186599 80.5873 0.2L 81.5873 0.2C 81.5873 0.365685 81.453 0.5 81.2873 0.5L 81.2873 -0.5ZM 93.3251 0.5C 93.1594 0.5 93.0251 0.365685 93.0251 0.2L 94.0251 0.2C 94.0251 -0.186599 93.7117 -0.5 93.3251 -0.5L 93.3251 0.5ZM 93.0251 2.90734C 93.0251 2.74166 93.1594 2.60734 93.3251 2.60734L 93.3251 3.60734C 93.7117 3.60734 94.0251 3.29394 94.0251 2.90734L 93.0251 2.90734ZM 84.6288 2.60734C 84.2422 2.60734 83.9288 2.92075 83.9288 3.30734L 84.9288 3.30734C 84.9288 3.47303 84.7945 3.60734 84.6288 3.60734L 84.6288 2.60734ZM 83.9288 7.99209C 83.9288 8.37869 84.2422 8.69209 84.6288 8.69209L 84.6288 7.69209C 84.7945 7.69209 84.9288 7.82641 84.9288 7.99209L 83.9288 7.99209ZM 92.8477 8.69209C 92.682 8.69209 92.5477 8.55778 92.5477 8.39209L 93.5477 8.39209C 93.5477 8.00549 93.2343 7.69209 92.8477 7.69209L 92.8477 8.69209ZM 92.5477 10.9864C 92.5477 10.8208 92.682 10.6864 92.8477 10.6864L 92.8477 11.6864C 93.2343 11.6864 93.5477 11.373 93.5477 10.9864L 92.5477 10.9864ZM 84.6288 10.6864C 84.2422 10.6864 83.9288 10.9998 83.9288 11.3864L 84.9288 11.3864C 84.9288 11.5521 84.7945 11.6864 84.6288 11.6864L 84.6288 10.6864ZM 83.9288 16.6362C 83.9288 17.0228 84.2422 17.3362 84.6288 17.3362L 84.6288 16.3362C 84.7945 16.3362 84.9288 16.4705 84.9288 16.6362L 83.9288 16.6362ZM 93.8024 17.3362C 93.6367 17.3362 93.5024 17.2018 93.5024 17.0362L 94.5024 17.0362C 94.5024 16.6496 94.189 16.3362 93.8024 16.3362L 93.8024 17.3362ZM 93.5024 19.8C 93.5024 19.6343 93.6367 19.5 93.8024 19.5L 93.8024 20.5C 94.189 20.5 94.5024 20.1866 94.5024 19.8L 93.5024 19.8ZM 81.2873 19.5C 81.453 19.5 81.5873 19.6343 81.5873 19.8L 80.5873 19.8C 80.5873 20.1866 80.9007 20.5 81.2873 20.5L 81.2873 19.5ZM 97.4737 -0.5C 97.0871 -0.5 96.7737 -0.186599 96.7737 0.2L 97.7737 0.2C 97.7737 0.365685 97.6394 0.5 97.4737 0.5L 97.4737 -0.5ZM 100.415 0.5C 100.249 0.5 100.115 0.365685 100.115 0.2L 101.115 0.2C 101.115 -0.186599 100.802 -0.5 100.415 -0.5L 100.415 0.5ZM 100.115 8.58892C 100.115 8.89552 100.364 9.14407 100.67 9.14407L 100.67 8.14407C 100.916 8.14407 101.115 8.34323 101.115 8.58892L 100.115 8.58892ZM 100.67 9.14407C 100.827 9.14407 100.976 9.078 101.081 8.96214L 100.341 8.28986C 100.425 8.19701 100.545 8.14407 100.67 8.14407L 100.67 9.14407ZM 108.855 0.401684C 108.798 0.464297 108.718 0.5 108.633 0.5L 108.633 -0.5C 108.436 -0.5 108.248 -0.416694 108.115 -0.270595L 108.855 0.401684ZM 112.587 0.5C 112.323 0.5 112.188 0.184426 112.369 -0.00665722L 113.094 0.6822C 113.518 0.236339 113.202 -0.5 112.587 -0.5L 112.587 0.5ZM 104.038 8.76104C 103.789 9.02264 103.78 9.43035 104.017 9.70264L 104.771 9.04635C 104.873 9.16305 104.869 9.33778 104.763 9.4499L 104.038 8.76104ZM 112.971 19.9969C 112.802 19.8027 112.94 19.5 113.197 19.5L 113.197 20.5C 113.798 20.5 114.12 19.7936 113.725 19.3406L 112.971 19.9969ZM 109.037 19.5C 109.127 19.5 109.212 19.5401 109.269 19.6094L 108.496 20.2446C 108.629 20.4063 108.827 20.5 109.037 20.5L 109.037 19.5ZM 101.097 9.67386C 100.992 9.5459 100.835 9.47175 100.669 9.47175L 100.669 10.4718C 100.536 10.4718 100.409 10.4121 100.325 10.3091L 101.097 9.67386ZM 100.669 9.47175C 100.363 9.47175 100.115 9.7198 100.115 10.0258L 101.115 10.0258C 101.115 10.2721 100.915 10.4718 100.669 10.4718L 100.669 9.47175ZM 100.115 19.8C 100.115 19.6343 100.249 19.5 100.415 19.5L 100.415 20.5C 100.802 20.5 101.115 20.1866 101.115 19.8L 100.115 19.8ZM 97.4737 19.5C 97.6394 19.5 97.7737 19.6343 97.7737 19.8L 96.7737 19.8C 96.7737 20.1866 97.0871 20.5 97.4737 20.5L 97.4737 19.5Z"/>
<path id="path2_fill" d="M 16.7095 2.25504L 13.619 5.5L 11 8.25L 13.619 11L 21.7731 2.43829C 21.8645 2.34226 21.7831 2.2 21.6367 2.2L 16.8458 2.2C 16.7928 2.2 16.7426 2.22025 16.7095 2.25504Z"/>
<path id="path3_fill" fill-rule="evenodd" d="M 8.38095 5.5L 8.38095 0.146667C 8.38095 0.0656649 8.45912 0 8.55556 0L 13.4444 0C 13.5409 0 13.619 0.0656648 13.619 0.146667L 13.619 5.5L 11 8.25L 8.38095 11L 0.226942 2.43829C 0.135483 2.34226 0.216878 2.2 0.363284 2.2L 5.15418 2.2C 5.20722 2.2 5.25738 2.22025 5.29052 2.25504L 8.38095 5.5ZM 13.619 11L 11 13.75L 8.38095 11L 0.226941 19.5617C 0.135482 19.6577 0.216878 19.8 0.363284 19.8L 5.15418 19.8C 5.20722 19.8 5.25738 19.7797 5.29052 19.745L 8.38095 16.5L 8.38095 21.8533C 8.38095 21.9343 8.45912 22 8.55556 22L 13.4444 22C 13.5409 22 13.619 21.9343 13.619 21.8533L 13.619 16.5L 16.7095 19.745C 16.7426 19.7797 16.7928 19.8 16.8458 19.8L 21.6367 19.8C 21.7831 19.8 21.8645 19.6577 21.7731 19.5617L 13.619 11Z"/>
</defs>
</svg>
